<svg xmlns="http://www.w3.org/2000/svg" width="640" height="420" viewBox="0 0 640 420"><defs><linearGradient id="sky3" x1="0" y1="0" x2="0" y2="1"><stop offset="0" stop-color="#a8cfe6"/><stop offset="1" stop-color="#dce8e2"/></linearGradient><linearGradient id="wtr3" x1="0" y1="0" x2="0" y2="1"><stop offset="0" stop-color="#4a90b0"/><stop offset="1" stop-color="#2d6585"/></linearGradient><linearGradient id="metal" x1="0" y1="0" x2="1" y2="0"><stop offset="0" stop-color="#9a9690"/><stop offset="0.5" stop-color="#bdb8b0"/><stop offset="1" stop-color="#8a857d"/></linearGradient></defs><rect width="640" height="420" fill="url(#sky3)"/><rect y="150" width="640" height="100" fill="url(#wtr3)"/><rect y="250" width="640" height="170" fill="#7a8a7a"/><rect x="60" y="90" width="60" height="280" fill="#b0a89c"/><rect x="520" y="90" width="60" height="280" fill="#b0a89c"/><rect x="300" y="110" width="50" height="260" fill="#a89e90"/><rect x="120" y="120" width="180" height="200" fill="url(#metal)"/><rect x="350" y="120" width="170" height="200" fill="url(#metal)"/><line x1="120" y1="160" x2="300" y2="160" stroke="#6a655c" stroke-width="3"/><line x1="120" y1="210" x2="300" y2="210" stroke="#6a655c" stroke-width="3"/><line x1="120" y1="260" x2="300" y2="260" stroke="#6a655c" stroke-width="3"/><line x1="350" y1="160" x2="520" y2="160" stroke="#6a655c" stroke-width="3"/><line x1="350" y1="210" x2="520" y2="210" stroke="#6a655c" stroke-width="3"/><line x1="350" y1="260" x2="520" y2="260" stroke="#6a655c" stroke-width="3"/><ellipse cx="200" cy="240" rx="22" ry="14" fill="#8a5a3a" opacity="0.45"/><ellipse cx="440" cy="190" rx="18" ry="11" fill="#8a5a3a" opacity="0.4"/><rect x="40" y="95" width="560" height="16" fill="#5a564e"/></svg>