<svg xmlns="http://www.w3.org/2000/svg" width="640" height="420" viewBox="0 0 640 420"><defs><linearGradient id="sky2" x1="0" y1="0" x2="0" y2="1"><stop offset="0" stop-color="#9cc7e4"/><stop offset="1" stop-color="#d4e6ea"/></linearGradient><linearGradient id="res" x1="0" y1="0" x2="0" y2="1"><stop offset="0" stop-color="#3d7ea0"/><stop offset="1" stop-color="#2a5d7a"/></linearGradient><linearGradient id="body" x1="0" y1="0" x2="0" y2="1"><stop offset="0" stop-color="#b0ada6"/><stop offset="1" stop-color="#807c73"/></linearGradient></defs><rect width="640" height="420" fill="url(#sky2)"/><polygon points="0,130 160,95 320,130 480,90 640,125 640,160 0,160" fill="#aebcc4" opacity="0.5"/><rect y="150" width="640" height="80" fill="url(#res)"/><ellipse cx="320" cy="175" rx="240" ry="10" fill="#ffffff" opacity="0.15"/><polygon points="0,230 640,230 580,420 60,420" fill="url(#body)"/><polygon points="0,230 640,230 615,260 25,260" fill="#c4c0b8"/><rect x="150" y="230" width="36" height="190" fill="#6e6a62"/><rect x="300" y="230" width="36" height="190" fill="#6e6a62"/><rect x="450" y="230" width="36" height="190" fill="#6e6a62"/><rect x="20" y="248" width="600" height="8" fill="#5a564e"/><path d="M 210 150 Q 218 240 225 330 M 330 145 Q 322 240 318 335" stroke="#3a3a3a" stroke-width="2.5" fill="none" opacity="0.65"/><path d="M 270 200 Q 285 230 275 270" stroke="#2a4a5a" stroke-width="4" fill="none" opacity="0.4"/></svg>