<svg xmlns="http://www.w3.org/2000/svg" width="640" height="420" viewBox="0 0 640 420"><defs><linearGradient id="sky" x1="0" y1="0" x2="0" y2="1"><stop offset="0" stop-color="#aed4ec"/><stop offset="1" stop-color="#e8f0e0"/></linearGradient><linearGradient id="steppe" x1="0" y1="0" x2="0" y2="1"><stop offset="0" stop-color="#cdb86f"/><stop offset="1" stop-color="#a89850"/></linearGradient><linearGradient id="wtr" x1="0" y1="0" x2="0" y2="1"><stop offset="0" stop-color="#7a8a6f"/><stop offset="1" stop-color="#5a6a55"/></linearGradient><linearGradient id="conc" x1="0" y1="0" x2="0" y2="1"><stop offset="0" stop-color="#cfc8bd"/><stop offset="1" stop-color="#a39a8c"/></linearGradient></defs><rect width="640" height="420" fill="url(#sky)"/><polygon points="0,150 120,110 240,145 380,105 520,150 640,120 640,170 0,170" fill="#b8c4c0" opacity="0.5"/><rect y="160" width="640" height="120" fill="url(#steppe)"/><polygon points="0,170 640,170 640,250 0,250" fill="url(#conc)"/><polygon points="80,170 560,170 470,250 170,250" fill="url(#wtr)"/><ellipse cx="320" cy="205" rx="170" ry="9" fill="#ffffff" opacity="0.18"/><ellipse cx="260" cy="220" rx="90" ry="5" fill="#ffffff" opacity="0.12"/><polygon points="170,250 470,250 430,320 210,320" fill="url(#conc)"/><rect y="320" width="640" height="100" fill="#8a7a60"/><line x1="240" y1="170" x2="285" y2="250" stroke="#8a8275" stroke-width="1.5" opacity="0.5"/><line x1="400" y1="170" x2="355" y2="250" stroke="#8a8275" stroke-width="1.5" opacity="0.5"/><path d="M 90 235 Q 110 255 105 285 M 230 232 Q 255 258 245 290 M 380 238 Q 405 262 400 292" stroke="#3a3228" stroke-width="2.5" fill="none" opacity="0.7"/><ellipse cx="160" cy="300" rx="45" ry="10" fill="#5a4a38" opacity="0.4"/><ellipse cx="340" cy="310" rx="55" ry="12" fill="#5a4a38" opacity="0.35"/></svg>